<?xml version="1.0" encoding="UTF-8" standalone="no"?>
<svg
   xmlns:dc="http://purl.org/dc/elements/1.1/"
   xmlns:cc="http://creativecommons.org/ns#"
   xmlns:rdf="http://www.w3.org/1999/02/22-rdf-syntax-ns#"
   xmlns:svg="http://www.w3.org/2000/svg"
   xmlns="http://www.w3.org/2000/svg"
   xmlns:sodipodi="http://sodipodi.sourceforge.net/DTD/sodipodi-0.dtd"
   xmlns:inkscape="http://www.inkscape.org/namespaces/inkscape"
   width="191.61333mm"
   height="243.03844mm"
   viewBox="0 0 191.61333 243.03844"
   version="1.1"
   id="svg1722"
   inkscape:version="1.1-dev (ddb55ca, 2020-02-02)"
   sodipodi:docname="ireland.svg">
  <defs
     id="defs1716" />
  <sodipodi:namedview
     id="base"
     pagecolor="#ffffff"
     bordercolor="#666666"
     borderopacity="1.0"
     inkscape:pageopacity="0.0"
     inkscape:pageshadow="2"
     inkscape:zoom="0.6105247"
     inkscape:cx="235.22956"
     inkscape:cy="708.95876"
     inkscape:document-units="mm"
     inkscape:current-layer="layer1"
     showgrid="false"
     fit-margin-top="0"
     fit-margin-left="0"
     fit-margin-right="0"
     fit-margin-bottom="0"
     inkscape:window-width="1792"
     inkscape:window-height="1094"
     inkscape:window-x="0"
     inkscape:window-y="26"
     inkscape:window-maximized="0" />
  <metadata
     id="metadata1719">
    <rdf:RDF>
      <cc:Work
         rdf:about="">
        <dc:format>image/svg+xml</dc:format>
        <dc:type
           rdf:resource="http://purl.org/dc/dcmitype/StillImage" />
        <dc:title></dc:title>
      </cc:Work>
    </rdf:RDF>
  </metadata>
  <g
     inkscape:label="Ebene 1"
     inkscape:groupmode="layer"
     id="layer1"
     transform="translate(-4.3008755,-22.111737)">
    <path
       d="m 19.126088,180.74809 c -1.031875,-0.0794 -1.719791,-0.66146 -1.984375,-1.45521 -0.264583,-0.79375 0.661459,-1.5875 0.661459,-1.5875 0,0 1.058333,1.19063 1.984375,1.53459 0.926041,0.34395 2.513541,1.7727 -0.661459,1.50812 z"
       fill="#abc178"
       id="XMLID_105_"
       inkscape:connector-curvature="0"
       style="stroke-width:0.264583" />
    <path
       d="m 71.381296,158.31142 c -0.661458,0.58209 -3.704167,0.47625 -4.101042,0 -0.396875,-0.47625 0.529167,-1.11125 1.058334,-1.905 0.529166,-0.79375 -0.79375,-0.66145 -1.190625,-0.66145 -0.396875,0 -0.79375,-1.27 -0.79375,-1.27 0,0 -0.661459,-0.42334 -1.984375,-1.0848 -1.322917,-0.66145 -0.132292,-1.4552 0,-1.82562 0.132291,-0.37042 -1.852084,-2.27542 -3.704167,-2.93688 -1.852083,-0.66145 -1.455208,2.38125 -1.455208,3.57188 0,1.19062 -0.529167,1.98437 -1.5875,2.27542 -1.058334,0.29104 -1.852084,1.42875 -3.439584,1.27 -1.5875,-0.15875 -3.042708,-3.14855 -4.101041,-3.28084 -1.058334,-0.13229 -1.852084,-0.26458 -1.984375,-0.89958 -0.132292,-0.635 0,-2.14313 -0.529167,-2.93688 -0.529167,-0.79375 -2.778125,-1.4552 -2.248958,-2.11666 0.529166,-0.66146 0.926041,-0.79375 0.926041,-0.79375 l 1.322917,-0.66146 c 0,0 1.322917,-0.92604 1.852083,-0.92604 0.529167,0 1.984375,-0.66146 2.248959,-1.05834 0.264583,-0.39687 -0.529167,-1.05833 -1.058334,-1.05833 -0.529166,0 -1.455208,-1.05833 -1.719791,-1.45521 -0.264584,-0.39687 0.264583,-1.5875 1.190625,-1.71979 0.926041,-0.13229 1.190625,0.66146 2.248958,0.92604 1.058333,0.26459 1.455208,-0.92604 2.38125,-1.32291 0.926042,-0.39688 0.661458,-1.98438 0.661458,-2.64584 0,-0.66146 0.529167,-1.98437 1.5875,-3.41312 0.635,-0.84667 1.799167,-1.13771 2.645834,-1.24354 0.07937,-0.18521 0.211666,-0.34396 0.396875,-0.47625 0.661458,-0.52917 3.042708,-2.11667 3.571875,-2.64584 0.529166,-0.52916 0.264583,-1.5875 -0.661459,-2.11666 -0.926041,-0.52917 -1.719791,-0.1323 -1.719791,-0.1323 0,0 -1.719792,-2.11666 -2.54,-1.71979 -0.820209,0.39688 -1.031875,0.66146 -0.370417,1.19063 0.661458,0.52916 0.264583,1.71979 0,1.79916 -0.264583,0.0794 -1.058333,-0.74083 -2.116667,0.3175 -1.058333,1.05834 0,0 -0.529166,1.05834 -0.529167,1.05833 0,2.38125 0,3.14854 0,0.76729 -0.79375,3.06917 -1.852084,3.06917 -1.058333,0 -0.926041,-1.5875 -0.132291,-1.85209 0.79375,-0.26458 0.79375,-2.24896 0.79375,-3.175 0,-0.92604 -0.396875,-2.24896 -1.984375,-2.51354 -1.5875,-0.26458 0.132291,0.79375 0,1.71979 -0.132292,0.92604 -0.661459,0 -1.852084,-0.58208 -1.190625,-0.58208 -0.132291,1.77271 -1.190625,1.905 -1.058333,0.13229 -0.79375,-2.24896 -1.719791,-1.85208 -0.926042,0.39687 -0.264584,1.05833 -0.926042,1.32291 -0.661458,0.26459 -1.5875,-0.66146 -2.248958,-0.66146 -0.661459,0 -0.661459,0.92605 -0.661459,1.45521 0,0.52917 -0.396875,0.92604 -1.719791,1.5875 -1.322917,0.66146 -0.396875,0.52917 -0.661459,1.98438 -0.264583,1.45521 0.661459,2.11666 0.661459,2.11666 0,0 -1.190625,0.1323 -1.984375,0.52917 -0.79375,0.39688 0.132291,1.5875 -0.926042,1.45521 -1.058333,-0.13229 -1.719792,0.26458 -2.778125,0.92604 -1.058333,0.66146 -0.529167,3.70417 0,4.36563 0.529167,0.66145 1.190625,-0.66146 2.116667,-1.19063 0.926041,-0.52917 1.455208,0 1.719791,0.92604 0.264584,0.92604 2.38125,0.13229 2.910417,-0.66146 0.529167,-0.79375 1.852083,-0.39687 2.116667,0.92605 0.264583,1.32291 -2.910417,3.43958 -3.307292,4.49791 -0.396875,1.05834 -3.836458,0.66146 -5.159375,1.32292 -1.322917,0.66146 -0.926042,1.32292 0,1.32292 0.926042,0 1.5875,0.92604 1.5875,1.5875 0,0.66145 -0.264583,1.32291 -2.513542,0.66145 -2.248958,-0.66145 -3.836458,-1.85208 -5.159375,-1.4552 -1.322916,0.39687 -0.132291,1.85208 -0.529166,2.24895 -0.396875,0.39688 -2.116666,0.39688 -1.322916,-1.19062 0.79375,-1.5875 -0.79375,-2.51354 -2.38125,-2.77813 -1.5875,-0.26458 0,0 -1.852084,0.52917 -1.852083,0.52917 -3.439583,-1.5875 -4.497916,-1.5875 -1.058334,0 -0.79375,1.98438 -0.79375,1.98438 0,0 -1.322917,1.98437 -1.455209,2.38125 -0.132291,0.39687 -1.455208,1.71979 -0.79375,1.85208 0.661459,0.13229 1.455209,1.32292 1.058334,1.5875 -0.396875,0.26458 -0.264584,1.71979 0.529166,1.71979 0.79375,0 1.058334,0.92604 0.529167,1.05833 -0.529167,0.1323 -0.79375,1.5875 -0.79375,1.5875 0,0 2.645833,-0.13229 3.704167,0.39688 1.058333,0.52917 -0.396875,1.5875 -0.926042,1.71979 -0.529167,0.13229 -2.910417,0 -4.233333,0.52917 -1.322917,0.52916 0,1.85208 0,2.24896 0,0.39687 1.984375,0.52916 3.042708,0.52916 1.058333,0 0,1.45521 -0.661458,1.85209 -0.661459,0.39687 -1.984375,-1.05834 -3.307292,-0.66146 -1.322917,0.39687 -0.926042,0.26458 -1.455208,0.13229 -0.529167,-0.13229 -1.5875,0.39687 -1.852083,1.19062 -0.264584,0.79375 1.190625,-0.39687 1.852083,1.19063 0.661458,1.5875 -0.661458,0.52917 -1.5875,0.52917 -0.926042,0 -1.455208,0.66145 -1.322917,1.71979 0.132292,1.05833 2.116667,0.58208 2.116667,0.58208 0,0 1.5875,0.60854 1.984375,0 0.396875,-0.60854 0.396875,-1.11125 1.719791,-0.71437 1.322917,0.39687 -0.926041,2.38125 -0.529166,2.64583 0.396875,0.26458 1.455208,0.39687 2.116666,0.26458 0.661459,-0.13229 0.396875,-1.32291 1.852084,-2.19604 1.455208,-0.87312 0.396875,2.59292 -0.264584,3.38667 -0.661458,0.79375 1.455209,0.66146 1.984375,0.79375 0.529167,0.13229 0.926042,0.26458 2.38125,0.26458 1.455209,0 2.645834,-1.19062 4.101042,-1.45521 1.455208,-0.26458 2.116666,1.98438 2.513541,2.24896 0.396875,0.26458 -1.455208,1.71979 -2.248958,1.5875 -0.79375,-0.13229 -1.5875,-0.52917 -3.307291,-1.19062 -1.719792,-0.66146 -0.926042,1.4552 -0.79375,1.85208 0.132291,0.39687 -2.645834,2.64583 -2.513542,3.83646 0.132292,1.19062 1.190625,0.52916 0.79375,1.45521 -0.396875,0.92604 -1.984375,2.91041 -3.175,2.91041 -1.190625,0 -2.116667,-0.26458 -2.513542,0.92604 -0.396875,1.19063 -0.661458,1.5875 -2.248958,1.98438 -1.5875,0.39687 -1.5875,1.45521 -0.396875,2.38125 1.190625,0.92604 3.836458,-2.51354 4.894792,-3.04271 1.058333,-0.52917 0.396875,0.79375 0.396875,0.79375 0,0 3.307291,0.39688 4.7625,0.66146 1.455208,0.26458 3.704166,-3.30729 3.704166,-3.30729 0,0 1.058334,1.45521 2.116666,1.19062 1.058334,-0.26458 1.455209,1.98438 0.79375,2.11667 -0.661458,0.13229 -1.719791,-0.13229 -3.042707,0 -1.322917,0.13229 0,0 -0.661459,0.79375 -0.661458,0.79375 -1.984375,0.26458 -2.645833,0.13229 -0.661458,-0.13229 -0.926042,0.52917 -1.455208,0.92604 -0.529167,0.39688 -3.96875,-0.79375 -5.291667,-0.26458 -1.322917,0.52917 -0.661458,2.64583 -0.661458,2.64583 0,0 -3.042709,-0.52916 -4.365625,0.13229 -1.322917,0.66146 0.79375,1.32292 1.322916,1.85209 0.529167,0.52916 0.396875,1.45521 -0.529166,2.38125 -0.926042,0.92604 -1.719792,-1.32292 -2.778125,-1.71979 -1.058333,-0.39688 -0.132292,1.19062 -0.79375,1.5875 -0.661458,0.39687 -1.1906249,-0.66146 -1.7197916,-1.19063 -0.5291667,-0.52917 -1.8520833,0.26458 -3.5718749,1.45521 -1.7197917,1.19062 -1.0583333,2.38125 -0.1322916,2.91042 0.9260416,0.52916 0,0 0.9260416,0.66145 0.9260416,0.66146 1.8520832,-0.26458 2.7781249,-1.05833 0.9260416,-0.79375 2.2489586,0.52917 2.6458336,0.52917 0.396875,0 2.778124,0.92604 1.984375,1.32291 -0.79375,0.39688 -1.852084,0.26459 -3.042709,0.79375 -1.1906246,0.52917 -4.2333328,2.11667 -5.8208328,1.85209 -1.5875,-0.26459 -0.396875,1.19062 0,1.32291 0.396875,0.1323 0.9260417,1.32292 1.4552083,1.85209 0.5291666,0.52916 2.1166666,-0.13229 1.5874999,0.39687 -0.5291667,0.52917 0.2645833,1.19063 1.4552083,1.32292 1.1906253,0.13229 0.5291663,0.66146 1.3229163,0.66146 0.79375,0 3.042709,-2.38125 4.233333,-2.91042 1.190625,-0.52917 2.645834,-0.13229 3.042709,1.32292 0.396875,1.45521 -4.630208,2.38125 -5.953125,3.175 -1.322917,0.79375 -3.0427083,2.24896 -3.1749999,3.175 -0.1322917,0.92604 1.8520829,-0.13229 3.9687499,-1.19063 2.116666,-1.05833 1.534583,-1.19062 1.534583,-1.19062 0,0 3.757083,-1.45521 5.476875,-1.19063 1.719792,0.26459 -0.79375,2.11667 -2.513542,2.24896 -1.719791,0.13229 -3.307291,1.32292 -2.910416,2.38125 0.396875,1.05833 1.455208,-1.45521 2.645833,-1.45521 1.190625,0 -0.926042,1.45521 -1.322917,1.85209 -0.396875,0.39687 -0.661458,1.5875 0,1.71979 0.661459,0.13229 2.513542,-2.24896 4.630209,-1.85209 2.116666,0.39688 0,0.92605 0.661458,1.5875 0.661458,0.66146 0.79375,-0.13229 2.116667,0 1.322916,0.1323 2.116666,-1.85208 2.513541,-2.64583 0.396875,-0.79375 0.926042,0.52917 1.322917,1.32292 0.396875,0.79375 0.926042,1.32291 2.116667,1.32291 1.190625,0 -0.132292,-1.85208 0.79375,-2.64583 0.926041,-0.79375 0.793749,0.92604 2.248957,0.66146 1.455209,-0.26458 -0.529166,-1.19063 0,-1.71979 0.529167,-0.52917 1.719792,1.32291 2.513542,1.05833 0.79375,-0.26458 -0.132292,-1.85208 1.058333,-1.85208 1.190625,0 1.719792,-0.13229 1.984375,-1.61396 0.264584,-1.48167 -0.396875,-3.01625 0.529167,-3.81 0.926042,-0.79375 1.5875,2.91042 1.984375,3.57187 0.396875,0.66146 1.984375,-0.13229 2.38125,-1.42875 0.396875,-1.29645 1.5875,-0.29104 2.513542,-0.0265 0.926041,0.26458 0.396875,-2.64584 0.926041,-3.04271 0.529167,-0.39688 2.778125,0.52916 3.439584,0 0.661458,-0.52917 -0.132292,-1.85209 -0.132292,-2.61938 0,-0.76729 4.497917,-0.68791 6.614583,-0.15875 2.116667,0.52917 2.513542,-0.39687 3.042709,-0.66146 0.529166,-0.26458 -1.719792,-3.96875 -0.661459,-5.02708 1.058334,-1.05833 2.116667,1.98438 1.852084,3.57188 -0.264584,1.5875 0.661458,1.32291 1.984375,0.66145 1.322916,-0.66145 0.79375,-1.4552 1.481666,-1.32291 0.687917,0.13229 1.031875,0.92604 3.280834,1.71979 2.248958,0.79375 2.513541,0.26458 2.778125,-0.66146 0.264583,-0.92604 -0.132292,-2.38125 -1.190625,-2.38125 -1.058334,0 -2.38125,-0.52917 -2.38125,-2.24896 0,-1.71979 2.645833,0 3.571875,-0.66146 0.926041,-0.66145 1.190625,-1.98437 1.5875,-3.175 0.396875,-1.19062 1.5875,-5.15937 1.322916,-6.2177 -0.264583,-1.05834 0.661459,-1.19063 1.852084,-1.85209 1.190625,-0.66146 0.79375,-6.21771 0,-7.14375 -0.79375,-0.92604 -0.396875,-1.05833 -0.396875,-2.38125 0,-1.32291 -1.058334,-0.79375 -2.38125,-1.98437 -1.322917,-1.19063 0.529166,-1.32292 1.852083,-0.92604 1.322917,0.39687 1.719792,-0.52917 1.455208,-1.5875 -0.264583,-1.05834 -1.322916,-0.26459 -1.190625,-1.45521 0.132292,-1.19063 1.984375,-0.52917 1.719792,-1.45521 -0.264583,-0.92604 -2.910417,-3.30729 -3.571875,-4.36563 -0.661458,-1.05833 0.661458,-0.52916 1.190625,-1.4552 0.529167,-0.92605 -0.926042,-2.51355 -0.926042,-2.51355 0,0 -1.322916,-2.51354 -0.661458,-3.175 0.661458,-0.66145 1.719792,0.92605 3.042708,0.92605 1.322917,0 -0.396875,-1.32292 -0.79375,-1.4023 -0.396875,-0.0794 -0.661458,-2.16958 -0.264583,-2.16958 0,-0.0529 -1.719792,-0.3175 -2.38125,0.26458 z"
       fill="#abc178"
       id="XMLID_102_"
       inkscape:connector-curvature="0"
       style="stroke-width:0.264583;fill:#00ff00" />
    <path
       d="m 85.139629,146.48455 c -0.926041,-0.52917 -0.79375,-3.175 -1.852083,-4.49792 -1.058333,-1.32291 -2.248958,1.19063 -3.571875,0.79375 -1.322917,-0.39687 1.984375,-2.38125 1.5875,-4.49791 -0.396875,-2.11667 -3.704167,-4.8948 -4.365625,-5.68855 -0.661458,-0.79375 0,-2.24895 -0.661458,-3.43958 -0.661459,-1.19062 -1.058334,0.26458 -3.042709,-0.26458 -1.984375,-0.52917 -0.529166,-1.05834 -1.719791,-1.32292 -1.190625,-0.26458 -1.190625,1.45521 -3.042709,1.32292 -1.852083,-0.13229 -1.984375,0.92604 -2.38125,1.11125 -0.396875,0.18521 -1.190625,-0.71438 -2.248958,-0.71438 -1.058333,0 -1.984375,2.38125 -3.307292,2.64584 -0.978958,0.1852 -1.164166,-0.34396 -0.926041,-0.84667 -0.846667,0.10583 -2.037292,0.42333 -2.645834,1.24354 -1.058333,1.42875 -1.5875,2.75167 -1.5875,3.41313 0,0.66145 0.264584,2.24895 -0.661458,2.64583 -0.926042,0.39687 -1.322917,1.5875 -2.38125,1.32292 -1.058333,-0.26459 -1.322917,-1.05834 -2.248958,-0.92605 -0.926042,0.1323 -1.455209,1.32292 -1.190625,1.7198 0.264583,0.39687 1.190625,1.4552 1.719791,1.4552 0.529167,0 1.322917,0.66146 1.058334,1.05834 -0.264584,0.39687 -1.719792,1.05833 -2.248959,1.05833 -0.529166,0 -1.852083,0.92604 -1.852083,0.92604 l -1.322917,0.66146 c 0,0 -0.396875,0.13229 -0.926041,0.79375 -0.529167,0.66146 1.719791,1.32292 2.248958,2.11667 0.529167,0.79375 0.396875,2.27541 0.529167,2.93687 0.132291,0.635 0.926041,0.76729 1.984375,0.89959 1.058333,0.13229 2.513541,3.12208 4.101041,3.28083 1.5875,0.15875 2.38125,-0.9525 3.439584,-1.27 1.058333,-0.29104 1.5875,-1.08479 1.5875,-2.27542 0,-1.19062 -0.396875,-4.23333 1.455208,-3.57187 1.852083,0.66146 3.836458,2.54 3.704167,2.93687 -0.132292,0.37042 -1.322917,1.16417 0,1.82563 1.322916,0.66146 1.984375,1.08479 1.984375,1.08479 0,0 0.396875,1.27 0.79375,1.27 0.396875,0 1.719791,-0.13229 1.190625,0.66146 -0.529167,0.79375 -1.455209,1.45521 -1.058334,1.905 0.396875,0.47625 3.439584,0.58208 4.101042,0 0.661458,-0.58209 2.38125,-0.3175 2.38125,-0.3175 0.396875,0 2.38125,1.71979 3.307292,2.11666 0.926041,0.39688 1.322916,-2.24895 1.5875,-3.43958 0.264583,-1.19062 0.529166,-2.51354 1.058333,-1.85208 0.529167,0.66146 1.455208,0 1.984375,0 0.529167,0 1.455208,-0.66146 1.984375,-1.05834 0.529167,-0.39687 -0.529167,-1.98437 -1.455208,-2.64583 -0.926042,-0.66146 0.79375,-1.32292 0.79375,-1.32292 0,0 -1.058334,-1.71979 -1.322917,-2.51354 -0.264583,-0.79375 1.719792,-0.79375 2.248958,0 0.529167,0.79375 0.132292,3.30729 0.79375,4.23334 0.661459,0.92604 0.661459,-0.39688 1.322917,-1.98438 0.661458,-1.53458 0,-2.46062 -0.926042,-2.98979 z m -11.165416,-3.4925 c -0.767292,0.0529 -2.2225,0.18521 -1.825625,0.71437 0.396875,0.52917 1.322916,3.06917 0.926041,2.72521 -0.396875,-0.34396 -1.852083,0 -1.852083,0 0,0 -1.190625,-0.18521 -2.645833,0 -0.79375,0.10584 -1.984375,-1.27 -1.984375,-1.40229 0,-0.13229 1.719791,-0.66146 1.984375,-0.66146 0.264583,0 0.79375,-1.85208 0.79375,-2.38125 0,-0.52916 0.264583,-3.57187 0.79375,-1.98437 0.529166,1.5875 1.190625,1.19062 1.852083,1.19062 0.661458,0 2.725208,1.74625 1.957917,1.79917 z"
       fill="#f8db94"
       id="XMLID_111_"
       inkscape:connector-curvature="0"
       style="stroke-width:0.264583;fill:#e6e6e6" />
    <path
       d="m 127.73755,125.21205 c 0.66146,-0.635 2.11667,0.23812 3.4925,0 1.37583,-0.23813 -0.84667,-1.61396 0,-2.06375 0.84667,-0.44979 1.79917,-1.13771 0.74083,-2.19604 -1.05833,-1.05834 -0.92604,-2.11667 0,-4.15396 0.92605,-2.03729 3.175,-2.72521 3.175,-2.72521 0,0 -1.05833,-2.38125 -2.24895,-3.70417 -1.19063,-1.32291 -2.24896,-0.39687 -3.70417,-1.05833 -1.45521,-0.66146 -1.98438,-2.11667 -3.70417,-2.38125 -1.71979,-0.26458 -2.24896,2.38125 -4.10104,3.175 -1.85208,0.79375 -1.98437,-0.39688 -3.175,-1.03188 -1.19062,-0.635 -0.79375,-0.29104 -2.64583,-0.0265 -1.85209,0.26459 -4.10104,-1.19062 -3.70417,-2.11666 0.39688,-0.92605 5.15938,0.66145 6.21771,0.66145 1.05833,0 2.11667,-2.91041 2.77812,-2.91041 0.66146,0 2.11667,0 2.77813,0 0.66146,0 2.51354,-1.32292 3.43958,-2.38125 0.92604,-1.05834 -2.51354,-0.79375 -3.30729,-1.64042 -0.79375,-0.846666 -0.26458,-0.60854 -0.13229,-2.063749 0.13229,-1.455208 -1.19063,-0.264583 -2.51354,0.396875 -1.32292,0.661458 -1.5875,1.190624 -1.98438,1.587504 -0.39687,0.39687 -2.91041,-0.793754 -1.45521,-1.455212 1.45521,-0.661459 1.98438,-1.984375 3.96875,-2.778125 1.98438,-0.79375 2.91042,0.926041 5.42396,0 2.51354,-0.926042 1.85209,-4.101042 2.24896,-5.159375 0.39688,-1.058334 1.05833,-2.910417 1.45521,-4.894792 0.39687,-1.984375 4.10104,-12.303125 4.63021,-13.758333 0.52916,-1.455209 1.32291,-0.132292 2.38125,-1.296459 1.05833,-1.164166 -1.85209,-4.259791 -2.38125,-5.318125 -0.52917,-1.058333 -2.24896,-1.322916 -3.70417,-0.79375 -1.45521,0.529167 -1.85208,1.058334 -3.83646,1.455209 -1.98437,0.396875 -2.64583,-1.058334 -4.49791,-1.058334 -1.85209,0 -0.66146,0.529167 -2.56646,1.058334 -1.905,0.529166 -3.38667,-0.529167 -3.38667,-0.529167 0,0 -2.64583,-0.396875 -3.04271,0 -0.39687,0.396875 -1.45521,0.661458 -2.51354,1.058333 -1.05833,0.396875 -3.04271,0.926042 -3.70417,1.058334 -0.66145,0.132291 -1.5875,2.116666 -1.98437,2.778125 -0.39688,0.661458 -1.98438,0.132291 -2.64584,-0.661459 -0.66146,-0.79375 2.72521,-2.434166 3.43959,-3.4925 0.68792,-1.058333 -1.66688,-0.529166 -2.38125,-0.15875 -0.71438,0.343959 -1.77271,0.185209 -1.58751,-0.873125 0.18521,-1.058333 0,0 0.97896,0.07937 0.97897,0.07937 0.52917,-0.608541 0.52917,-1.137708 0,-0.529167 1.77271,0 2.83105,0 1.05833,0 1.5875,-1.852083 0.60854,-2.566458 -0.97896,-0.714375 -2.30188,0 -3.51896,0 -1.24355,0 -1.13771,-0.79375 -0.97896,-1.5875 0.1852,-0.79375 1.32292,0.343958 2.56646,0.608541 1.24354,0.264584 1.32292,-1.5875 1.40229,-2.460625 0.0794,-0.873125 11.37708,-10.239374 12.43542,-11.191874 1.05833,-0.978958 -0.44979,-1.852083 -0.87313,-2.566458 -0.44979,-0.714375 0.97896,-0.79375 1.5875,-1.5875 0.60854,-0.79375 0,-1.772709 -0.79375,-1.772709 -0.79375,0 -1.5875,0.07937 -2.19604,-0.714375 -0.60854,-0.79375 -1.77271,0 -1.24354,0.529167 0.52917,0.529167 -0.71438,0.687917 -1.5875,1.402292 -0.87313,0.714375 -1.24354,0.264583 -1.77271,0.185208 -0.52917,-0.07937 -0.97896,-1.058333 -1.40229,-0.714375 -0.44979,0.343958 -0.60854,0.449792 -0.97896,1.481667 -0.34396,1.058333 -2.19604,0.185208 -2.83104,0 -0.60854,-0.185209 -0.71438,-1.137709 -0.97896,-1.481667 -0.26458,-0.343958 -0.52917,0.185208 -0.87312,0.714375 -0.34396,0.529167 -1.66688,0 -2.11668,0.79375 -0.44979,0.79375 -0.34395,0.529167 -0.87312,0.529167 -0.52917,0 -0.97896,0.449791 -1.05833,1.402291 -0.0794,0.978959 0,0 -1.05834,-0.343958 -1.058331,-0.343958 -0.26458,-0.714375 0,-1.243542 0.26459,-0.529166 -1.772706,-0.714375 -2.037289,-0.264583 -0.264583,0.449792 -0.264583,1.058333 -0.873125,1.402292 -0.608542,0.343958 -0.873125,-0.343959 -0.714375,-0.608542 0.185208,-0.264583 -0.07937,-1.666875 -0.714375,-1.666875 -0.608542,0 -1.058333,-0.343958 -1.137708,-0.714375 -0.07937,-0.343958 -1.349375,-1.11125 -2.196042,-0.529167 -1.799167,1.243542 -0.449792,3.65125 -0.449792,4.180417 0,0.529167 -1.455208,1.190625 -1.852083,1.984375 -0.396875,0.793749 2.116667,2.513541 1.190625,3.439583 -0.926042,0.926041 -3.704167,-0.926042 -3.836458,-0.132292 -0.132292,0.79375 1.322916,1.455208 0.529166,3.439583 -0.79375,1.984375 -1.5875,0.264584 -0.926041,1.719792 0.661458,1.455208 4.894791,0.926042 4.101041,3.307292 -0.79375,2.38125 -0.79375,-0.264584 -1.852083,-0.529167 -1.058333,-0.264583 -1.322917,1.058333 -1.719792,1.322917 -0.396875,0.264583 -2.513541,-0.926042 -2.645833,-0.396875 -0.132292,0.529166 0.79375,2.248958 -0.396875,3.704166 -1.190625,1.455209 -2.116667,-3.836458 -2.910417,-3.439583 -0.79375,0.396875 1.322917,4.7625 0.926042,5.291667 -0.396875,0.529166 1.5875,1.5875 3.042708,1.852083 1.455209,0.264583 -0.661458,1.852083 -1.984375,1.984375 -1.322916,0.132292 -2.248958,-2.38125 -3.439583,-1.852083 -1.190625,0.529166 0.529167,2.248958 0.529167,3.042708 0,0.79375 -0.661459,1.322917 0.132291,2.645833 0.79375,1.322917 1.5875,-0.79375 1.984375,-1.322916 0.396875,-0.529167 1.852084,0 2.778125,0 0.926042,0 0,1.190625 0,1.719791 0,0.529167 1.984375,1.852084 1.058334,1.984375 -0.926042,0.132292 -2.248959,-0.132291 -2.778125,1.058334 -0.529167,1.190625 1.5875,0 2.513541,1.984375 0.926042,1.984375 -2.910416,0.529166 -4.365625,1.058333 -1.455208,0.529167 -0.132291,2.645833 -0.529166,2.645833 -0.396875,0 -1.455209,1.322917 -1.455209,1.322917 0,0 1.455209,1.984375 1.190625,2.38125 -0.264583,0.396875 -2.248958,1.5875 -2.778125,1.455208 -0.529166,-0.132291 -2.248958,0.132292 -3.413125,1.190625 -1.164166,1.058334 2.487084,0.926042 3.545417,1.058334 1.058333,0.132291 2.248958,-0.661459 2.513542,-1.455209 0.264583,-0.79375 3.307291,0.926042 3.307291,1.719792 0,0.79375 -0.661458,0.529167 -1.984375,0.396875 -1.322916,-0.132292 -3.042708,1.190625 -3.307291,1.852083 -0.264584,0.661459 1.984375,1.322917 2.910416,1.5875 0.926042,0.264584 3.042709,-0.926041 3.042709,-0.926041 0,0 1.5875,1.322916 1.455208,3.042708 -0.132292,1.719792 3.042708,-0.264583 3.704167,0.396875 0.661458,0.661458 -0.661459,1.322917 -1.322917,1.5875 -0.661458,0.264583 -2.116667,-0.79375 -3.307292,-0.79375 -1.190625,0 -1.852083,1.322917 -1.984375,1.984375 -0.132291,0.661458 0.79375,2.381254 0.529167,2.778124 -0.264583,0.39688 -0.396875,4.23333 -1.322917,4.89479 -0.926041,0.66146 0.132292,3.96875 -0.264583,5.02709 -0.396875,1.05833 0.79375,1.05833 1.852083,1.05833 1.058334,0 0,1.5875 -1.190625,1.98437 -1.190625,0.39688 -1.984375,1.7198 -1.852083,2.91042 0.132292,1.19063 0.529167,3.30729 0.264583,4.63021 -0.264583,1.32292 -2.38125,2.24896 -1.984375,3.73062 0.396875,1.48167 1.322917,-0.42333 2.38125,-1.03187 1.058334,-0.635 1.719792,-0.68792 1.455209,-1.27 -0.264584,-0.58208 0.132291,-2.06375 0.661458,-2.32833 0.529167,-0.26459 0.264583,-3.3073 0.396875,-4.63021 0.132292,-1.32292 1.5875,-0.92604 2.116667,-2.11667 0.529166,-1.19062 -2.248959,-4.89479 -2.645834,-6.08542 -0.396875,-1.19062 1.190625,-1.32291 3.571875,-3.0427 2.38125,-1.7198 2.778125,-3.96875 4.497917,-3.57188 1.719792,0.39688 -3.439583,5.15938 -4.7625,6.48229 -1.322917,1.32292 0.132292,2.51354 0.926042,2.91042 0.79375,0.39687 0.529166,-1.5875 1.322916,-2.11667 0.79375,-0.52916 1.058334,1.5875 1.984375,1.71979 0.926042,0.1323 1.455209,-1.98437 1.5875,-2.38125 0.132292,-0.39687 -0.396875,-2.51354 -0.264583,-3.83645 0.132292,-1.32292 2.778125,-1.19063 2.910417,-0.66146 0.132291,0.52916 0.132291,2.64583 1.058333,3.70416 0.926042,1.05834 3.704164,2.24896 4.101044,3.04271 0.39687,0.79375 -1.32292,0.66146 -3.175002,-0.13229 -1.852084,-0.79375 -2.778125,-0.26458 -3.571875,1.19063 -0.79375,1.4552 0.926041,1.85208 0.396875,3.0427 -0.529167,1.19063 -1.058334,1.32292 0.396875,3.175 1.455208,1.85209 1.190625,4.10105 0,5.02709 -1.190625,0.92604 -1.852084,2.24896 -1.852084,2.93687 0,0.68792 -0.396875,2.61938 -1.322916,3.81 -0.926042,1.19063 -0.661459,5.55625 -1.5875,5.42396 -0.926042,-0.13229 -0.926042,-1.98437 -1.5875,-1.82562 -0.661459,0.15875 -0.926042,1.16416 -0.132292,2.75166 0.79375,1.5875 1.984375,4.49792 2.248958,6.58813 0.264584,2.09021 2.248959,0.0265 2.38125,0 0.132292,-0.0265 -0.79375,-2.75167 -1.058333,-4.20688 -0.264583,-1.45521 1.5875,-1.05833 1.984375,-0.79375 0.396875,0.26459 3.836458,4.36563 5.159375,5.00063 1.322914,0.635 0.661454,-2.35479 0.846664,-3.01625 0.18521,-0.66146 -1.243539,-2.38125 -0.978956,-3.175 0.264586,-0.79375 2.248956,1.45521 2.513546,2.72521 0.26458,1.27 3.175,0.58208 4.89479,0 1.71979,-0.58209 0.66146,-1.27 1.05834,-1.93146 0.39687,-0.66146 2.11666,0.26458 3.0427,0.52916 0.92605,0.26459 0.66146,-1.85208 0.79375,-2.64583 0.1323,-0.79375 0.79375,-1.32292 1.85209,-1.82562 1.05833,-0.50271 2.24896,1.16416 3.04271,1.29645 0.79375,0.1323 4.23333,-1.85208 4.23333,-1.85208 0,0 3.43958,-2.91042 5.15937,-4.49792 1.7198,-1.5875 0.66146,-2.77812 1.32292,-3.41312 z"
       fill="#74cce5"
       id="XMLID_73_"
       inkscape:connector-curvature="0"
       style="stroke-width:0.264583;fill:#b3b3b3" />
    <path
       d="m 125.22401,214.29726 c -0.66146,-1.11125 -1.85208,-0.87313 -2.91042,-0.21167 -1.05833,0.66146 -1.32291,-0.39687 -1.85208,-1.45521 -0.52917,-1.05833 -0.52917,-2.24896 -1.19063,-3.175 -0.66145,-0.92604 0.92605,-2.51354 2.38125,-3.83646 1.45521,-1.32291 1.45521,-3.175 0.66146,-3.30729 -0.79375,-0.13229 -3.175,-0.52916 -3.83646,-2.24896 -0.66145,-1.71979 0.92605,-0.13229 1.98438,0 1.05833,0.1323 1.85208,-1.98437 1.71979,-2.64583 -0.13229,-0.66146 -1.19062,-0.13229 -1.71979,0.39688 -0.52917,0.52916 -1.32292,0 -1.32292,-0.79375 0,-0.79375 2.24896,-2.64584 2.38125,-3.83646 0.13229,-1.19063 -0.39687,-1.98438 -1.45521,-2.24896 -1.05833,-0.26458 -0.13229,-1.85208 1.19063,-3.30729 1.32292,-1.45521 2.11667,0.39687 3.30729,1.05833 1.19063,0.66146 1.85208,-1.05833 1.71979,-1.98437 -0.13229,-0.92605 -1.71979,-0.92605 -2.64583,-1.98438 -0.92604,-1.05833 0.66146,-0.79375 0,-1.85208 -0.66146,-1.05834 -1.05833,-0.66146 -0.92604,-1.5875 0.0794,-0.55563 -1.19063,-1.37584 -2.24896,-1.95792 0.29104,0.79375 0.10583,1.13771 -0.26458,1.42875 -0.52917,0.39688 -3.175,-3.30729 -4.23334,-3.30729 -1.05833,0 -1.45521,1.32292 -3.175,2.11667 -1.71979,0.79375 -1.71979,-1.32292 -3.04271,-1.85209 -1.32291,-0.52916 -1.4552,1.98438 -1.4552,1.98438 0,0 -1.19063,0.52916 -2.38125,0.92604 -1.19063,0.39687 -5.55626,5.29167 -6.482301,6.48229 -0.926041,1.19063 -0.79375,0.52917 -2.778125,1.32292 -1.984375,0.79375 -1.984375,2.64583 -1.5875,3.30729 0.396875,0.66146 1.719792,-0.66146 2.248959,0.13229 0.529166,0.79375 1.719791,0.26458 1.852083,-1.05833 0.132292,-1.32292 1.190624,-1.5875 3.042704,-2.11667 1.85209,-0.52917 2.11668,0.79375 1.85209,1.71979 -0.26459,0.92604 1.5875,2.51354 1.85209,3.30729 0.26458,0.79375 -1.5875,1.85209 -2.24897,3.04271 -0.66146,1.19063 0.92605,1.19063 1.58751,1.71979 0.66146,0.52917 -0.26459,4.23334 -0.79375,5.55625 -0.52917,1.32292 -2.24897,0.52917 -3.65126,1.05834 -1.402289,0.52916 -0.44979,1.5875 -1.508122,1.71979 -1.058334,0.13229 -2.645834,0.66146 -3.307292,1.5875 -0.661458,0.92604 -2.248958,1.71979 -3.96875,1.45521 -1.719792,-0.26459 -3.042708,1.45521 -3.571875,1.98437 -0.529167,0.52917 -2.513542,1.05834 -3.175,1.32292 -0.661458,0.26458 0,1.5875 0.926042,1.45521 0.926041,-0.13229 2.248958,0.39687 2.248958,0.39687 0,0 -0.396875,1.32292 -1.719792,1.32292 -1.322916,0 -0.529166,1.71979 0.132292,2.64583 0.661458,0.92604 1.5875,-0.39687 1.852083,-0.92604 0.264584,-0.52917 1.455209,0.39688 1.852084,0.39688 0.396875,0 0.661458,-0.52917 1.984375,-0.79375 1.322916,-0.26459 0,1.5875 0,1.5875 0,0 2.38125,0.92604 2.910416,0.79375 0.529167,-0.1323 0,-1.19063 0.529167,-2.24896 0.529167,-1.05834 1.852083,0.66146 2.645833,0.66146 0.79375,0 1.455211,-0.92605 3.042711,-1.19063 1.5875,-0.26458 0.39687,1.5875 0.92604,2.77813 0.52917,1.19062 2.24896,-0.26459 2.38125,0.39687 0.1323,0.66146 -2.11667,0.92604 -2.91042,0.82021 -0.79375,-0.10583 -1.5875,1.42875 0.13229,2.75167 1.7198,1.32291 1.19063,-1.32292 2.64584,-1.85209 1.45521,-0.52916 1.19063,1.32292 2.51354,1.32292 1.32292,0 0.1323,-0.66146 -0.52916,-2.2225 -0.66146,-1.56104 0.13229,-0.55563 1.71979,-0.55563 1.5875,0 1.5875,3.04271 3.04271,4.36563 1.45521,1.32292 6.08541,2.64583 7.80521,1.85208 1.71979,-0.79375 1.19062,-2.38125 1.98437,-3.96875 0.79375,-1.5875 1.19063,0.26459 2.77813,0.52917 1.5875,0.26458 1.4552,-0.66146 2.77812,-2.2225 0.15875,-0.18521 0.34396,-0.39688 0.50271,-0.60854 -0.13229,-1.85209 -0.34396,-4.28625 -0.50271,-4.84188 -0.26458,-0.92604 -1.05833,-0.39687 -1.71979,-1.50812 z"
       fill="#f58e81"
       id="XMLID_72_"
       inkscape:connector-curvature="0"
       style="stroke-width:0.264583;fill:#e6e6e6" />
    <path
       d="m 195.47088,198.60747 c 1.19063,-1.05834 -0.26458,-7.27605 -1.4552,-9.57792 -1.19063,-2.30188 -7.14375,-5.10646 -8.0698,-5.37104 -0.92604,-0.26459 -2.11666,0 -2.11666,0.66146 0,0.66145 -1.45521,0.92604 -2.24896,0.52916 -0.79375,-0.39687 -3.70417,-0.66146 -4.89479,-0.26458 -1.19063,0.39687 -1.98438,4.10104 -1.98438,4.10104 0,0 -1.85208,0.79375 -3.175,0 -1.32291,-0.79375 -1.05833,-2.11667 -1.05833,-2.11667 -0.66146,-0.26458 -1.85208,-0.26458 -1.71979,-1.98437 0.13229,-1.71979 1.32291,0.13229 1.85208,0 0.52917,-0.13229 0.52917,-1.05833 1.05833,-2.24896 0.52917,-1.19062 1.45521,-0.13229 1.98438,-1.32292 0.52917,-1.19062 -3.30729,-7.54062 -3.83646,-8.41375 -0.52917,-0.87312 -0.92604,-0.84666 -3.04271,-1.74625 -2.11666,-0.89958 -3.70416,-2.54 -4.7625,-3.06916 -1.05833,-0.52917 -1.45521,0.39687 -2.91041,0.92604 -1.45521,0.52917 -1.98438,-0.39688 -1.5875,-1.85208 0.39687,-1.45521 2.64583,-0.39688 3.83645,-0.79375 1.19063,-0.39688 2.38125,0.26458 2.91042,1.5875 0.52917,1.32291 1.71979,1.05833 3.43958,1.4552 1.7198,0.39688 0.79375,1.45521 2.24896,1.7198 1.45521,0.26458 0,-1.32292 -0.92604,-2.77813 -0.92604,-1.45521 -1.45521,-2.11667 -1.98437,-2.64583 -0.52917,-0.52917 -2.91042,-4.63021 -4.10105,-6.35 -1.19062,-1.71979 2.11667,-1.32292 2.51355,-2.51354 0.39687,-1.19063 -1.5875,-1.5875 -2.77813,-1.98438 -1.19062,-0.39687 -3.43958,-3.83646 -3.43958,-5.42396 0,-1.5875 -0.52917,-2.11666 -2.38125,-2.67229 -1.85209,-0.55562 -4.36563,-2.75167 -5.15938,-3.46604 -0.79375,-0.68792 -1.71979,2.01083 -2.77812,0.84667 -1.05834,-1.19063 0,-1.32292 -0.52917,-3.43959 -0.52917,-2.11666 -0.79375,-0.26458 -1.19062,-0.84666 -0.39688,-0.58209 -3.96875,-4.04813 -3.86292,-4.97417 0.10583,-0.92604 -0.76729,-1.71979 -0.23813,-2.91042 0.52917,-1.19062 0,-1.19062 0,-3.04271 0,-1.85208 -1.05833,-2.64583 -1.85208,-3.41312 -0.79375,-0.76729 0.39688,-1.08479 1.05833,-2.40771 0.66146,-1.32292 -0.26458,-2.77813 -1.19062,-3.30729 -0.92604,-0.52917 -5.95313,-5.42396 -5.95313,-5.42396 0,0 -2.24895,0.68792 -3.175,2.72521 -0.92604,2.03729 -1.05833,3.09562 0,4.15396 1.05834,1.05833 0.10584,1.74625 -0.74083,2.19604 -0.84667,0.44979 1.37583,1.85208 0,2.06375 -1.37583,0.23812 -2.83104,-0.635 -3.4925,0 -0.66146,0.635 0.39688,1.82562 -1.32292,3.41312 -1.71979,1.5875 -5.15937,4.49792 -5.15937,4.49792 0,0 -1.5875,2.91042 -2.38125,3.175 -0.79375,0.26458 -1.71979,1.19063 -1.71979,1.19063 0,0 -0.52917,-1.19063 -1.5875,-1.05834 -1.05834,0.13229 -0.92604,2.51354 -1.5875,3.12209 -0.66146,0.60854 -0.13229,2.43416 -0.66146,3.46604 -0.52917,1.03187 -2.38125,2.01083 -2.24896,3.46604 0.13229,1.42875 3.96875,4.39208 4.36563,5.68854 0.39687,1.29646 0,3.99521 0.92604,5.31813 0.92604,1.32291 3.83646,0.66145 4.23333,0 0.39688,-0.66146 2.77813,-1.98438 3.70417,-1.98438 0.92604,0 0.13229,2.91042 -0.26459,3.57188 -0.39687,0.66145 -1.32291,0.26458 -1.85208,1.11125 -0.52917,0.84666 1.05833,0.87312 2.24896,0.87312 1.19062,0 -0.66146,1.32292 -1.19063,1.85208 -0.52916,0.52917 -1.71979,0.79375 -2.91041,0.79375 -1.19063,0 -0.26459,1.45521 0.79375,3.57188 1.05833,2.11667 2.64583,0.92604 3.04271,1.19062 0.39687,0.26459 -1.45521,1.45521 -2.77813,1.45521 -1.32292,0 -1.71979,1.71979 -1.71979,2.69875 0,0.97896 2.91042,3.51896 3.175,4.18042 0.26458,0.66146 1.05833,0.66146 2.91042,0.79375 1.85208,0.13229 0,0.92604 -1.5875,1.85208 -1.5875,0.92604 -2.91042,-2.91041 -3.57188,-3.30729 -0.66146,-0.39687 -1.5875,0.52917 -0.66146,2.11667 0.26459,0.42333 0.42334,0.79375 0.52917,1.08479 1.05833,0.58208 2.32833,1.40229 2.24896,1.95792 -0.13229,0.92604 0.26458,0.52916 0.92604,1.5875 0.66146,1.05833 -0.92604,0.79375 0,1.85208 0.92604,1.05833 2.51354,1.05833 2.64583,1.98437 0.13229,0.92605 -0.52916,2.64584 -1.71979,1.98438 -1.19062,-0.66146 -1.98437,-2.51354 -3.30729,-1.05833 -1.32292,1.4552 -2.24896,3.0427 -1.19063,3.30729 1.05834,0.26458 1.5875,1.05833 1.45521,2.24896 -0.13229,1.19062 -2.38125,3.0427 -2.38125,3.83645 0,0.79375 0.79375,1.32292 1.32292,0.79375 0.52917,-0.52916 1.5875,-1.05833 1.71979,-0.39687 0.13229,0.66146 -0.66146,2.77812 -1.71979,2.64583 -1.05833,-0.13229 -2.64583,-1.71979 -1.98438,0 0.66146,1.71979 3.04271,2.11667 3.83646,2.24896 0.79375,0.13229 0.79375,1.98438 -0.66146,3.30729 -1.4552,1.32292 -3.0427,2.91042 -2.38125,3.83646 0.66146,0.92604 0.66146,2.11667 1.19063,3.175 0.52917,1.05833 0.79375,2.11667 1.85208,1.45521 1.05834,-0.66146 2.24896,-0.89958 2.91042,0.21167 0.66146,1.11125 1.45521,0.58208 1.71979,1.50812 0.15875,0.55563 0.37042,2.98979 0.50271,4.84188 1.27,-1.50813 2.8575,-3.28084 4.25979,-2.59292 1.5875,0.79375 -4.10104,6.35 -6.35,7.14375 -2.24896,0.79375 -2.77812,2.38125 -2.77812,3.70417 0,1.32291 -0.92605,3.175 -1.7198,2.91041 -0.79375,-0.26458 0.1323,-1.85208 -0.92604,-1.71979 -1.05833,0.13229 -0.52916,1.71979 -1.85208,1.98438 -1.32292,0.26458 -2.38125,0.79375 -3.175,-0.1323 -0.79375,-0.92604 -4.89479,-1.05833 -5.95313,-0.66145 -1.05833,0.39687 -0.66145,0.26458 -3.0427,0.13229 -2.38126,-0.13229 -4.23334,1.19062 -4.36563,1.71979 -0.1323,0.52917 1.19062,1.32292 2.38125,1.19062 1.19063,-0.13229 0.13229,2.64584 -0.1323,3.3073 -0.26458,0.66145 -1.32291,-0.92605 -2.11666,-1.7198 -0.79375,-0.79375 -0.87313,1.05834 -0.87313,1.05834 0,0 -0.846664,0 -2.301872,-0.52917 -1.455209,-0.52917 -1.852084,1.85208 -1.984375,3.57188 -0.132292,1.71979 0.264583,4.49791 -1.190625,4.6302 -1.455209,0.1323 -2.645834,1.98438 -2.910417,3.175 -0.264583,1.19063 0,0 -0.264583,1.5875 -0.264584,1.5875 -1.455209,-1.19062 -2.513542,-1.4552 -1.058333,-0.26459 -1.190625,2.24895 -1.5875,3.70416 -0.396875,1.45521 -2.248958,3.96875 -3.307292,4.36563 -1.058333,0.39687 -0.79375,0.92604 -1.852083,0.79375 -1.058333,-0.13229 -1.190625,-0.66146 -2.116667,-0.39688 -0.926041,0.26459 -1.058333,0.92604 -1.5875,0.79375 -0.529166,-0.13229 -0.79375,0.13229 -1.719791,1.71979 -0.926042,1.5875 0.661458,2.51355 1.5875,2.51355 0.926041,0 1.190625,-2.64584 2.248958,-2.77813 1.058333,-0.13229 3.571875,1.98438 3.704167,3.04271 0.132291,1.05833 1.322916,2.64583 1.799166,1.85208 0.47625,-0.79375 1.243542,-0.92604 1.508125,-2.11666 0.264584,-1.19063 -1.058333,-1.05834 -1.455208,-1.32292 -0.396875,-0.26458 1.5875,-4.10104 2.645833,-4.10104 1.058334,0 0.79375,2.64583 0.79375,2.64583 0,0 0.926042,-0.79375 1.058334,-1.50812 0.132291,-0.71438 1.852083,-0.21167 1.772708,-0.87313 -0.07937,-0.66146 -0.582083,-1.5875 1.005417,-2.11667 1.5875,-0.52916 3.042708,0.1323 3.96875,0.26459 0.926041,0.13229 1.5875,-1.5875 1.5875,-1.5875 0.661457,-0.26459 2.910417,2.77812 3.307287,2.24896 0.39688,-0.52917 0.26459,-1.98438 1.7198,-2.11667 1.45521,-0.13229 -0.39687,1.85208 -0.26458,3.04271 0.13229,1.19062 1.5875,-0.66146 2.51354,-1.32292 0.92604,-0.66146 1.32292,0.66146 2.24896,1.05833 0.92604,0.39688 0.92604,-0.52916 1.32291,0.66146 0.39688,1.19063 1.7198,0.79375 2.11667,0 0.39688,-0.79375 -0.26458,-1.71979 0.26458,-1.98437 0.52917,-0.26459 1.5875,-1.5875 1.32292,-2.91042 -0.26458,-1.32292 -1.5875,-1.05833 -1.5875,-1.85208 0,-0.79375 1.98438,-1.32292 2.11667,-1.40229 0.13229,-0.0794 -0.39688,-2.16959 0.52916,-2.56646 0.92605,-0.39688 0.26459,0.79375 0.79375,0.92604 0.52917,0.13229 3.175,-1.5875 3.83646,-2.11667 0.66146,-0.52916 1.98438,-0.52916 4.89479,-0.26458 2.91042,0.26458 3.96875,4.49792 5.95313,3.96875 1.98437,-0.52917 -0.26458,-1.32292 0.13229,-2.38125 0.39688,-1.05833 1.19063,0.92604 2.11667,0.92604 0.92604,0 3.43958,0.79375 5.55625,0.66146 2.11666,-0.13229 0.26458,-1.19063 -0.79375,-1.45521 -1.05834,-0.26458 -1.19063,-0.92604 0.52916,-2.11667 1.7198,-1.19062 0.52917,1.05834 1.32292,1.32292 0.79375,0.26458 2.38125,-0.52917 2.24896,-1.69333 -0.13229,-1.16417 2.38125,-0.0265 4.63021,0 2.24896,0.0265 2.11666,-2.01084 2.24896,-2.54 0.13229,-0.52917 -0.66146,-1.85209 -0.26459,-1.85209 0.39688,0 1.85209,1.5875 2.24896,2.11667 0.39688,0.52917 1.5875,0.26458 2.77813,0.39688 1.19062,0.13229 2.38125,0 2.38125,0 0,0 0.39687,1.5875 1.85208,1.85208 1.45521,0.26458 0.26458,-1.32292 2.51354,-1.85208 2.24896,-0.52917 4.10104,0.26458 4.7625,-0.39688 0.66146,-0.66146 3.175,-1.19062 4.23333,-1.19062 1.05834,0 2.91042,1.98437 4.36563,2.24895 1.45521,0.26459 3.04271,-0.13229 3.175,-0.92604 0.13229,-0.79375 1.5875,-1.98437 3.175,-2.51354 1.5875,-0.52917 3.83646,-0.92604 4.89479,-0.92604 1.05833,0 1.98438,-1.05833 2.51354,-2.77813 0.52917,-1.71979 1.05834,-2.64583 2.91042,-2.64583 1.85208,0 1.71979,-1.19062 1.98437,-2.91042 0.26459,-1.71979 0.26459,-3.175 0.79375,-4.02166 0.52917,-0.84667 -1.85208,-2.46063 -2.64583,-1.66688 -0.79375,0.79375 -2.64583,1.32292 -5.15937,1.32292 -2.51355,0 -5.15938,0.79375 -6.21771,0 -1.05834,-0.79375 2.51354,-1.32292 1.98437,-2.38125 -0.52916,-1.05833 -2.77812,0.92604 -3.83646,0.92604 -1.05833,0 -4.7625,-0.52917 -4.89479,-1.32292 -0.13229,-0.79375 4.10104,0.26459 5.29167,0 1.19062,-0.26458 2.51354,-1.4552 3.57187,-1.32291 1.05834,0.13229 1.45521,-0.39688 1.7198,-1.05834 0.26458,-0.66145 -1.7198,-0.79375 -1.7198,-1.98437 0,-1.19063 1.45521,0.26458 2.91042,0 1.45521,-0.26458 0,-1.5875 -0.52917,-2.11667 -0.52916,-0.52916 -2.24895,0.52917 -2.77812,0 -0.52917,-0.52916 1.05833,-1.19062 2.38125,-1.85208 1.32292,-0.66146 0.39687,-1.98438 1.32292,-1.19063 0.92604,0.79375 1.85208,2.51355 2.51354,1.98438 0.66146,-0.52917 1.05833,-0.26458 2.11666,-1.05833 1.05834,-0.79375 -0.39687,-1.19063 -0.52916,-1.85209 -0.13229,-0.66146 -0.52917,-1.32291 -1.71979,-1.32291 -1.19063,0 0,-1.98438 0.79375,-2.24896 0.79375,-0.26459 1.98437,1.19062 2.64583,1.05833 0.66146,-0.13229 -0.39688,-1.45521 0.39687,-1.85208 0.79375,-0.39688 0.79375,0.13229 2.11667,0 1.32292,-0.13229 1.19063,-4.63021 0.66146,-6.08542 -0.52917,-1.45521 0.79375,-1.87854 1.98437,-2.93687 z"
       fill="#fac8d3"
       id="XMLID_71_"
       inkscape:connector-curvature="0"
       style="stroke-width:0.264583;fill:#b3b3b3" />
    <text
       style="font-size:5.93103px;white-space:pre;stroke-width:0.264584"
       id="XMLID_28_"
       x="6.3795862"
       y="187.73883"
       transform="scale(1.0137696,0.9864174)"><tspan
         style="font-style:normal;font-variant:normal;font-weight:normal;font-stretch:normal;font-family:Arial;-inkscape-font-specification:Arial;stroke-width:0.264584"
         id="tspan1033"
         letter-spacing="0.494251"
         font-size="17.4473px"
         font-family="'MyriadPro-Semibold'"
         y="187.73883"
         x="6.3795862">IRELAND</tspan></text>
    <rect
       style="stroke-width:0.264583"
       y="83.751793"
       x="8.4704199"
       fill="#169b62"
       width="67.011917"
       height="33.505955"
       id="rect2875" />
    <rect
       style="stroke-width:0.264583"
       y="83.751793"
       fill="#ffffff"
       x="30.807718"
       width="44.674606"
       height="33.505955"
       id="rect2877" />
    <rect
       style="stroke-width:0.264583"
       y="83.751793"
       fill="#ff883e"
       x="53.145027"
       width="22.337305"
       height="33.505955"
       id="rect2879" />
  </g>
</svg>
